<?xml version="1.0" encoding="iso-8859-1"?>
<!-- Uploaded to: SVG Repo, www.svgrepo.com, Generator: SVG Repo Mixer Tools -->
<svg fill="#000000" height="800px" width="800px" version="1.1" id="Layer_1" xmlns="http://www.w3.org/2000/svg" xmlns:xlink="http://www.w3.org/1999/xlink" 
	 viewBox="0 0 376.178 376.178" xml:space="preserve">
<g>
	<g>
		<path d="M282.44,62.966h-44.8V51.394c0-5.818-4.719-10.408-10.408-10.408h-7.499V10.408C219.733,4.59,215.014,0,209.325,0h-42.731
			c-5.818,0-10.408,4.719-10.408,10.408v30.578h-7.499c-5.818,0-10.408,4.719-10.408,10.408v11.572H93.414
			c-17.067,0-30.966,13.899-30.966,30.966v251.281c0,17.067,13.899,30.966,30.966,30.966h189.349
			c17.067,0,30.966-13.899,30.966-30.966V93.931C313.471,76.865,299.507,62.966,282.44,62.966z M198.788,20.816v20.105h-21.851
			l-0.065-20.105H198.788z M158.901,61.867h57.794v17.067h-57.794V61.867z M282.505,355.232H93.156c-5.56,0-10.02-4.461-10.02-10.02
			V198.594h20.299c5.818,0,10.408-4.719,10.408-10.408s-4.719-10.408-10.408-10.408H83.071v-20.105h40.792
			c5.818,0,10.408-4.719,10.408-10.408s-4.719-10.408-10.408-10.408H83.071V94.19c0-5.56,4.461-10.02,10.02-10.02h44.929v5.495
			c0,5.818,4.719,10.408,10.408,10.408h78.675c5.818,0,10.408-4.719,10.408-10.408V84.17h44.8c5.56,0,10.02,4.461,10.02,10.02
			v251.152h0.188C292.45,350.84,288.021,355.232,282.505,355.232z"/>
	</g>
</g>
<g>
	<g>
		<path d="M234.925,250.44c-30.319-11.184-64-11.184-94.255,0c-16.226,6.012-27.216,21.657-27.216,38.788v35.491
			c0,5.818,4.719,10.408,10.408,10.408h127.806c5.818,0,10.408-4.719,10.408-10.408v-35.491
			C262.141,272.032,251.216,256.453,234.925,250.44z M241.261,314.246H134.4v-24.953c0-8.469,5.43-16.226,13.511-19.135
			c25.665-9.438,54.174-9.438,79.838,0c8.145,3.038,13.511,10.731,13.511,19.135V314.246z"/>
	</g>
</g>
<g>
	<g>
		<path d="M187.798,142.028c-23.273,0-42.214,18.877-42.214,42.15s18.941,42.214,42.214,42.214s42.214-18.941,42.214-42.214
			S211.071,142.028,187.798,142.028z M187.798,205.446c-11.766,0-21.269-9.568-21.269-21.269s9.632-21.204,21.269-21.204
			c11.766,0,21.269,9.568,21.269,21.269C209.067,195.943,199.434,205.446,187.798,205.446z"/>
	</g>
</g>
</svg>