<?xml version="1.0" encoding="iso-8859-1"?>
<!-- Uploaded to: SVG Repo, www.svgrepo.com, Generator: SVG Repo Mixer Tools -->
<svg fill="#000000" height="800px" width="800px" version="1.1" id="Layer_1" xmlns="http://www.w3.org/2000/svg" xmlns:xlink="http://www.w3.org/1999/xlink" 
	 viewBox="0 0 392.663 392.663" xml:space="preserve">
<g>
	<g>
		<path d="M294.012,59.216h-97.616v-7.499C196.396,23.208,173.188,0,144.679,0S92.962,23.208,92.962,51.717v8.145
			c-14.545,2.715-25.6,15.451-25.6,30.772v270.739c0,17.261,14.093,31.289,31.289,31.289h195.362
			c17.261,0,31.289-14.093,31.289-31.289V90.505C325.301,73.244,311.273,59.216,294.012,59.216z M114.747,51.653
			c0.129-16.42,13.511-29.867,29.931-29.867c16.485,0,29.802,13.382,29.802,29.802v7.499h-18.941v-4.202
			c0-6.012-4.848-10.925-10.925-10.925s-10.925,4.978-10.925,10.99v4.202h-18.941V51.653z M174.545,81.002v26.958
			c0,5.236-4.267,9.503-9.503,9.503c-5.236,0-9.503-4.267-9.503-9.503V81.002h0.065H174.545z M303.58,361.244h-0.065v0
			c0,5.236-4.267,9.503-9.503,9.503H98.78c-5.236,0-9.503-4.267-9.503-9.503V246.949h14.61c6.012,0,10.925-4.848,10.925-10.925
			c0-6.012-4.849-10.925-10.925-10.925h-14.61v-18.941h40.016c6.012,0,10.925-4.849,10.925-10.925
			c0-6.077-4.848-10.925-10.925-10.925H89.277V90.505c0-5.236,4.267-9.503,9.503-9.503h34.974v26.958
			c0,17.261,14.093,31.289,31.289,31.289c17.196,0,31.354-14.093,31.354-31.289V81.002h97.681c5.236,0,9.503,4.267,9.503,9.503
			V361.244z"/>
	</g>
</g>
<g>
	<g>
		<path d="M196.396,153.729c-22.885,0-41.503,18.618-41.503,41.503c0,22.885,18.618,41.503,41.503,41.503
			s41.503-18.618,41.503-41.503C237.899,172.347,219.281,153.729,196.396,153.729z M196.396,215.079
			c-10.796,0-19.717-8.792-19.717-19.717c0-10.925,8.921-19.717,19.717-19.717s19.717,8.792,19.717,19.717
			C216.113,206.158,207.321,215.079,196.396,215.079z"/>
	</g>
</g>
<g>
	<g>
		<path d="M196.396,250.958c-47.192,0-86.756,38.465-87.984,85.721c-0.065,2.909,1.034,5.818,3.103,7.887
			c2.069,2.069,4.848,3.297,7.822,3.297h154.247c2.909,0,5.818-1.164,7.822-3.297c2.069-2.069,3.168-4.913,3.103-7.887
			C283.152,289.487,243.588,250.958,196.396,250.958z M131.426,326.077c6.077-30.319,33.228-53.333,64.97-53.333
			s58.828,23.014,64.97,53.333H131.426z"/>
	</g>
</g>
</svg>